<svg xmlns="http://www.w3.org/2000/svg" version="1.1" xmlns:xlink="http://www.w3.org/1999/xlink" xmlns:svgjs="http://svgjs.dev/svgjs" width="1440" height="560" preserveAspectRatio="none" viewBox="0 0 1440 560"><g mask="url(&quot;#SvgjsMask1017&quot;)" fill="none"><path d="M982 283L981 116" stroke-width="8" stroke="url(&quot;#SvgjsLinearGradient1018&quot;)" stroke-linecap="round" class="Down"></path><path d="M183 438L182 636" stroke-width="8" stroke="url(&quot;#SvgjsLinearGradient1018&quot;)" stroke-linecap="round" class="Down"></path><path d="M166 517L165 893" stroke-width="6" stroke="url(&quot;#SvgjsLinearGradient1019&quot;)" stroke-linecap="round" class="Up"></path><path d="M891 492L890 148" stroke-width="10" stroke="url(&quot;#SvgjsLinearGradient1020&quot;)" stroke-linecap="round" class="Up"></path><path d="M388 488L387 339" stroke-width="8" stroke="url(&quot;#SvgjsLinearGradient1019&quot;)" stroke-linecap="round" class="Up"></path><path d="M305 318L304 712" stroke-width="8" stroke="url(&quot;#SvgjsLinearGradient1020&quot;)" stroke-linecap="round" class="Up"></path><path d="M867 499L866 820" stroke-width="6" stroke="url(&quot;#SvgjsLinearGradient1020&quot;)" stroke-linecap="round" class="Up"></path><path d="M535 68L534 -179" stroke-width="10" stroke="url(&quot;#SvgjsLinearGradient1019&quot;)" stroke-linecap="round" class="Up"></path><path d="M266 274L265 571" stroke-width="10" stroke="url(&quot;#SvgjsLinearGradient1020&quot;)" stroke-linecap="round" class="Up"></path><path d="M133 310L132 634" stroke-width="10" stroke="url(&quot;#SvgjsLinearGradient1020&quot;)" stroke-linecap="round" class="Up"></path><path d="M777 407L776 30" stroke-width="8" stroke="url(&quot;#SvgjsLinearGradient1018&quot;)" stroke-linecap="round" class="Down"></path><path d="M400 10L399 -132" stroke-width="8" stroke="url(&quot;#SvgjsLinearGradient1019&quot;)" stroke-linecap="round" class="Up"></path><path d="M198 303L197 41" stroke-width="10" stroke="url(&quot;#SvgjsLinearGradient1021&quot;)" stroke-linecap="round" class="Down"></path><path d="M1048 133L1047 499" stroke-width="10" stroke="url(&quot;#SvgjsLinearGradient1020&quot;)" stroke-linecap="round" class="Up"></path><path d="M852 502L851 138" stroke-width="8" stroke="url(&quot;#SvgjsLinearGradient1021&quot;)" stroke-linecap="round" class="Down"></path><path d="M1134 438L1133 179" stroke-width="6" stroke="url(&quot;#SvgjsLinearGradient1021&quot;)" stroke-linecap="round" class="Down"></path><path d="M1129 303L1128 67" stroke-width="8" stroke="url(&quot;#SvgjsLinearGradient1020&quot;)" stroke-linecap="round" class="Up"></path><path d="M542 497L541 147" stroke-width="8" stroke="url(&quot;#SvgjsLinearGradient1021&quot;)" stroke-linecap="round" class="Down"></path><path d="M1377 257L1376 41" stroke-width="8" stroke="url(&quot;#SvgjsLinearGradient1021&quot;)" stroke-linecap="round" class="Down"></path><path d="M417 454L416 112" stroke-width="8" stroke="url(&quot;#SvgjsLinearGradient1021&quot;)" stroke-linecap="round" class="Down"></path><path d="M1241 210L1240 354" stroke-width="10" stroke="url(&quot;#SvgjsLinearGradient1018&quot;)" stroke-linecap="round" class="Down"></path><path d="M1123 152L1122 -198" stroke-width="10" stroke="url(&quot;#SvgjsLinearGradient1021&quot;)" stroke-linecap="round" class="Down"></path><path d="M44 395L43 85" stroke-width="8" stroke="url(&quot;#SvgjsLinearGradient1018&quot;)" stroke-linecap="round" class="Down"></path><path d="M1061 504L1060 194" stroke-width="8" stroke="url(&quot;#SvgjsLinearGradient1020&quot;)" stroke-linecap="round" class="Up"></path><path d="M1212 38L1211 440" stroke-width="10" stroke="url(&quot;#SvgjsLinearGradient1019&quot;)" stroke-linecap="round" class="Up"></path><path d="M1394 4L1393 229" stroke-width="8" stroke="url(&quot;#SvgjsLinearGradient1018&quot;)" stroke-linecap="round" class="Down"></path><path d="M1109 431L1108 804" stroke-width="10" stroke="url(&quot;#SvgjsLinearGradient1019&quot;)" stroke-linecap="round" class="Up"></path><path d="M666 186L665 528" stroke-width="8" stroke="url(&quot;#SvgjsLinearGradient1021&quot;)" stroke-linecap="round" class="Down"></path><path d="M483 90L482 420" stroke-width="10" stroke="url(&quot;#SvgjsLinearGradient1021&quot;)" stroke-linecap="round" class="Down"></path><path d="M1311 359L1310 1" stroke-width="8" stroke="url(&quot;#SvgjsLinearGradient1019&quot;)" stroke-linecap="round" class="Up"></path><path d="M1056 422L1055 586" stroke-width="6" stroke="url(&quot;#SvgjsLinearGradient1019&quot;)" stroke-linecap="round" class="Up"></path><path d="M1093 64L1092 391" stroke-width="10" stroke="url(&quot;#SvgjsLinearGradient1018&quot;)" stroke-linecap="round" class="Down"></path><path d="M1295 450L1294 868" stroke-width="10" stroke="url(&quot;#SvgjsLinearGradient1018&quot;)" stroke-linecap="round" class="Down"></path><path d="M736 158L735 16" stroke-width="8" stroke="url(&quot;#SvgjsLinearGradient1021&quot;)" stroke-linecap="round" class="Down"></path><path d="M1189 29L1188 -349" stroke-width="10" stroke="url(&quot;#SvgjsLinearGradient1018&quot;)" stroke-linecap="round" class="Down"></path><path d="M238 436L237 137" stroke-width="8" stroke="url(&quot;#SvgjsLinearGradient1021&quot;)" stroke-linecap="round" class="Down"></path></g><defs><mask id="SvgjsMask1017"><rect width="1440" height="560" fill="#ffffff"></rect></mask><linearGradient x1="0%" y1="0%" x2="0%" y2="100%" id="SvgjsLinearGradient1018"><stop stop-color="rgba(33, 33, 33, 0)" offset="0"></stop><stop stop-color="rgba(33, 33, 33, 1)" offset="1"></stop></linearGradient><linearGradient x1="0%" y1="100%" x2="0%" y2="0%" id="SvgjsLinearGradient1019"><stop stop-color="rgba(96, 94, 92, 0)" offset="0"></stop><stop stop-color="rgba(96, 94, 92, 1)" offset="1"></stop></linearGradient><linearGradient x1="0%" y1="100%" x2="0%" y2="0%" id="SvgjsLinearGradient1020"><stop stop-color="rgba(33, 33, 33, 0)" offset="0"></stop><stop stop-color="rgba(33, 33, 33, 1)" offset="1"></stop></linearGradient><linearGradient x1="0%" y1="0%" x2="0%" y2="100%" id="SvgjsLinearGradient1021"><stop stop-color="rgba(96, 94, 92, 0)" offset="0"></stop><stop stop-color="rgba(96, 94, 92, 1)" offset="1"></stop></linearGradient></defs></svg>